<mxfile host="65bd71144e">
    <diagram id="nikch6BmPYuTfpJFe0ON" name="Page-1">
        <mxGraphModel dx="1393" dy="557" grid="1" gridSize="10" guides="1" tooltips="1" connect="1" arrows="1" fold="1" page="1" pageScale="1" pageWidth="850" pageHeight="1100" math="0" shadow="0">
            <root>
                <mxCell id="0"/>
                <mxCell id="1" parent="0"/>
                <mxCell id="3" value="" style="rounded=0;whiteSpace=wrap;html=1;fillColor=#EBEBEB;" vertex="1" parent="1">
                    <mxGeometry x="80" y="40" width="720" height="520" as="geometry"/>
                </mxCell>
                <mxCell id="4" value="" style="rounded=0;whiteSpace=wrap;html=1;fillColor=#1491FF;" vertex="1" parent="1">
                    <mxGeometry x="80" y="40" width="720" height="40" as="geometry"/>
                </mxCell>
                <mxCell id="5" value="" style="rounded=0;whiteSpace=wrap;html=1;fillColor=#66B2FF;" vertex="1" parent="1">
                    <mxGeometry x="80" y="80" width="100" height="480" as="geometry"/>
                </mxCell>
                <mxCell id="8" value="" style="shape=actor;whiteSpace=wrap;html=1;fillColor=#454545;" vertex="1" parent="1">
                    <mxGeometry x="90" y="45" width="40" height="30" as="geometry"/>
                </mxCell>
                <mxCell id="9" value="" style="shape=delay;whiteSpace=wrap;html=1;direction=west;fillColor=#99FFCC;" vertex="1" parent="1">
                    <mxGeometry x="100" y="130" width="80" height="40" as="geometry"/>
                </mxCell>
                <mxCell id="11" value="" style="shape=delay;whiteSpace=wrap;html=1;direction=west;fillColor=#99FFCC;" vertex="1" parent="1">
                    <mxGeometry x="100" y="190" width="80" height="40" as="geometry"/>
                </mxCell>
                <mxCell id="14" value="" style="line;strokeWidth=4;html=1;perimeter=backbonePerimeter;points=[];outlineConnect=0;" vertex="1" parent="1">
                    <mxGeometry x="80" y="500" width="100" height="10" as="geometry"/>
                </mxCell>
                <mxCell id="15" value="" style="line;strokeWidth=2;direction=south;html=1;" vertex="1" parent="1">
                    <mxGeometry x="680" y="40" width="10" height="40" as="geometry"/>
                </mxCell>
                <mxCell id="16" value="" style="line;strokeWidth=2;direction=south;html=1;" vertex="1" parent="1">
                    <mxGeometry x="740" y="40" width="10" height="40" as="geometry"/>
                </mxCell>
                <mxCell id="19" value="X" style="rounded=0;whiteSpace=wrap;html=1;fillColor=#FF0000;" vertex="1" parent="1">
                    <mxGeometry x="740" y="40" width="60" height="40" as="geometry"/>
                </mxCell>
                <mxCell id="20" value="" style="shape=delay;whiteSpace=wrap;html=1;direction=west;fillColor=#99FFCC;" vertex="1" parent="1">
                    <mxGeometry x="100" y="250" width="80" height="40" as="geometry"/>
                </mxCell>
                <mxCell id="23" value="Assets" style="childLayout=tableLayout;recursiveResize=0;strokeColor=#98bf21;fillColor=#99FFCC;shadow=1;" vertex="1" parent="1">
                    <mxGeometry x="470" y="210" width="310" height="210" as="geometry"/>
                </mxCell>
                <mxCell id="24" style="shape=tableRow;horizontal=0;startSize=0;swimlaneHead=0;swimlaneBody=0;top=0;left=0;bottom=0;right=0;dropTarget=0;collapsible=0;recursiveResize=0;expand=0;fontStyle=0;strokeColor=inherit;fillColor=#ffffff;" vertex="1" parent="23">
                    <mxGeometry width="310" height="43" as="geometry"/>
                </mxCell>
                <mxCell id="25" value="Title 1" style="connectable=0;recursiveResize=0;strokeColor=inherit;fillColor=#A7C942;align=center;fontStyle=1;fontColor=#FFFFFF;html=1;" vertex="1" parent="24">
                    <mxGeometry width="103" height="43" as="geometry">
                        <mxRectangle width="103" height="43" as="alternateBounds"/>
                    </mxGeometry>
                </mxCell>
                <mxCell id="26" value="Title 2" style="connectable=0;recursiveResize=0;strokeColor=inherit;fillColor=#A7C942;align=center;fontStyle=1;fontColor=#FFFFFF;html=1;" vertex="1" parent="24">
                    <mxGeometry x="103" width="104" height="43" as="geometry">
                        <mxRectangle width="104" height="43" as="alternateBounds"/>
                    </mxGeometry>
                </mxCell>
                <mxCell id="27" value="Title 3" style="connectable=0;recursiveResize=0;strokeColor=inherit;fillColor=#A7C942;align=center;fontStyle=1;fontColor=#FFFFFF;html=1;" vertex="1" parent="24">
                    <mxGeometry x="207" width="103" height="43" as="geometry">
                        <mxRectangle width="103" height="43" as="alternateBounds"/>
                    </mxGeometry>
                </mxCell>
                <mxCell id="28" value="" style="shape=tableRow;horizontal=0;startSize=0;swimlaneHead=0;swimlaneBody=0;top=0;left=0;bottom=0;right=0;dropTarget=0;collapsible=0;recursiveResize=0;expand=0;fontStyle=0;strokeColor=inherit;fillColor=#ffffff;" vertex="1" parent="23">
                    <mxGeometry y="43" width="310" height="42" as="geometry"/>
                </mxCell>
                <mxCell id="29" value="Value 1" style="connectable=0;recursiveResize=0;strokeColor=inherit;fillColor=inherit;align=center;whiteSpace=wrap;html=1;" vertex="1" parent="28">
                    <mxGeometry width="103" height="42" as="geometry">
                        <mxRectangle width="103" height="42" as="alternateBounds"/>
                    </mxGeometry>
                </mxCell>
                <mxCell id="30" value="Value 2" style="connectable=0;recursiveResize=0;strokeColor=inherit;fillColor=inherit;align=center;whiteSpace=wrap;html=1;" vertex="1" parent="28">
                    <mxGeometry x="103" width="104" height="42" as="geometry">
                        <mxRectangle width="104" height="42" as="alternateBounds"/>
                    </mxGeometry>
                </mxCell>
                <mxCell id="31" value="Value 3" style="connectable=0;recursiveResize=0;strokeColor=inherit;fillColor=inherit;align=center;whiteSpace=wrap;html=1;" vertex="1" parent="28">
                    <mxGeometry x="207" width="103" height="42" as="geometry">
                        <mxRectangle width="103" height="42" as="alternateBounds"/>
                    </mxGeometry>
                </mxCell>
                <mxCell id="32" value="" style="shape=tableRow;horizontal=0;startSize=0;swimlaneHead=0;swimlaneBody=0;top=0;left=0;bottom=0;right=0;dropTarget=0;collapsible=0;recursiveResize=0;expand=0;fontStyle=1;strokeColor=inherit;fillColor=#EAF2D3;" vertex="1" parent="23">
                    <mxGeometry y="85" width="310" height="41" as="geometry"/>
                </mxCell>
                <mxCell id="33" value="Value 4" style="connectable=0;recursiveResize=0;strokeColor=inherit;fillColor=inherit;whiteSpace=wrap;html=1;" vertex="1" parent="32">
                    <mxGeometry width="103" height="41" as="geometry">
                        <mxRectangle width="103" height="41" as="alternateBounds"/>
                    </mxGeometry>
                </mxCell>
                <mxCell id="34" value="Value 5" style="connectable=0;recursiveResize=0;strokeColor=inherit;fillColor=inherit;whiteSpace=wrap;html=1;" vertex="1" parent="32">
                    <mxGeometry x="103" width="104" height="41" as="geometry">
                        <mxRectangle width="104" height="41" as="alternateBounds"/>
                    </mxGeometry>
                </mxCell>
                <mxCell id="35" value="Value 6" style="connectable=0;recursiveResize=0;strokeColor=inherit;fillColor=inherit;whiteSpace=wrap;html=1;" vertex="1" parent="32">
                    <mxGeometry x="207" width="103" height="41" as="geometry">
                        <mxRectangle width="103" height="41" as="alternateBounds"/>
                    </mxGeometry>
                </mxCell>
                <mxCell id="36" value="" style="shape=tableRow;horizontal=0;startSize=0;swimlaneHead=0;swimlaneBody=0;top=0;left=0;bottom=0;right=0;dropTarget=0;collapsible=0;recursiveResize=0;expand=0;fontStyle=0;strokeColor=inherit;fillColor=#ffffff;" vertex="1" parent="23">
                    <mxGeometry y="126" width="310" height="43" as="geometry"/>
                </mxCell>
                <mxCell id="37" value="Value 7" style="connectable=0;recursiveResize=0;strokeColor=inherit;fillColor=inherit;fontStyle=0;align=center;whiteSpace=wrap;html=1;" vertex="1" parent="36">
                    <mxGeometry width="103" height="43" as="geometry">
                        <mxRectangle width="103" height="43" as="alternateBounds"/>
                    </mxGeometry>
                </mxCell>
                <mxCell id="38" value="Value 8" style="connectable=0;recursiveResize=0;strokeColor=inherit;fillColor=inherit;fontStyle=0;align=center;whiteSpace=wrap;html=1;" vertex="1" parent="36">
                    <mxGeometry x="103" width="104" height="43" as="geometry">
                        <mxRectangle width="104" height="43" as="alternateBounds"/>
                    </mxGeometry>
                </mxCell>
                <mxCell id="39" value="Value 9" style="connectable=0;recursiveResize=0;strokeColor=inherit;fillColor=inherit;fontStyle=0;align=center;whiteSpace=wrap;html=1;" vertex="1" parent="36">
                    <mxGeometry x="207" width="103" height="43" as="geometry">
                        <mxRectangle width="103" height="43" as="alternateBounds"/>
                    </mxGeometry>
                </mxCell>
                <mxCell id="40" value="" style="shape=tableRow;horizontal=0;startSize=0;swimlaneHead=0;swimlaneBody=0;top=0;left=0;bottom=0;right=0;dropTarget=0;collapsible=0;recursiveResize=0;expand=0;fontStyle=1;strokeColor=inherit;fillColor=#EAF2D3;" vertex="1" parent="23">
                    <mxGeometry y="169" width="310" height="41" as="geometry"/>
                </mxCell>
                <mxCell id="41" value="Value 10" style="connectable=0;recursiveResize=0;strokeColor=inherit;fillColor=inherit;whiteSpace=wrap;html=1;" vertex="1" parent="40">
                    <mxGeometry width="103" height="41" as="geometry">
                        <mxRectangle width="103" height="41" as="alternateBounds"/>
                    </mxGeometry>
                </mxCell>
                <mxCell id="42" value="Value 11" style="connectable=0;recursiveResize=0;strokeColor=inherit;fillColor=inherit;whiteSpace=wrap;html=1;" vertex="1" parent="40">
                    <mxGeometry x="103" width="104" height="41" as="geometry">
                        <mxRectangle width="104" height="41" as="alternateBounds"/>
                    </mxGeometry>
                </mxCell>
                <mxCell id="43" value="Value 12" style="connectable=0;recursiveResize=0;strokeColor=inherit;fillColor=inherit;whiteSpace=wrap;html=1;" vertex="1" parent="40">
                    <mxGeometry x="207" width="103" height="41" as="geometry">
                        <mxRectangle width="103" height="41" as="alternateBounds"/>
                    </mxGeometry>
                </mxCell>
                <mxCell id="44" value="" style="rounded=1;whiteSpace=wrap;html=1;" vertex="1" parent="1">
                    <mxGeometry x="210" y="200" width="230" height="230" as="geometry"/>
                </mxCell>
            </root>
        </mxGraphModel>
    </diagram>
</mxfile>